<?xml version="1.0" encoding="UTF-8"?><svg id="Layer_1" xmlns="http://www.w3.org/2000/svg" viewBox="0 0 58.12 51.96"><defs><style>.cls-1{fill:#fff;}</style></defs><path class="cls-1" d="M54.25,7.32c.44.4,2.1.58,2.75.64.42.41-1.75,1.9-1.92,2.45-.25.83.05,2.01-.06,2.9-1.01-.15-1.67-1.27-2.72-1.33-.95-.05-2.89,1.65-2.81.46.05-.81.65-1.44.4-2.59-.23-1.08-1.52-1.4-1.64-2.46,2.7.29,3.5-.64,4.65-2.82.48,0,.94,2.38,1.34,2.75Z"/><path class="cls-1" d="M57.28,41.54c-.52,1.42-.33,2.05.84,2.96-1.43.71-1.96.49-2.68,2.11-.71-1.3-1.41-1.53-2.68-2.11,1.04-.87,1.36-1.67.84-2.96,1.59.54,2.08.54,3.67,0Z"/><path class="cls-1" d="M18.24,34.29l-9.23-8.97c-.95-1.43,1.18-1.56,2.21-1.76,3.48-.68,7.8-.72,11.13-1.56,4.41-1.12,6.21-9.81,8.62-13.39.66-.98,1.26-1.46,2.16-.36,2.42,2.95,3.86,10.73,7.11,12.92.58.39,1.02.65,1.72.82,3.33.84,7.65.89,11.13,1.56,1.74.34,3.24.28,1.78,2.18-2.27,2.94-6.28,5.7-8.72,8.49-.33.38-1.05,1.49-1.17,1.94-.87,3.31,1.62,10.26,1.84,13.98.09,1.53.04,2.17-1.61,1.61-3.33-1.12-7.18-4.17-10.52-5.57-1.92-.8-2.94-.93-4.91-.11-3.25,1.36-7.73,4.86-10.89,5.77-1.54.44-1.5-.4-1.42-1.7.23-3.69,1.8-7.88,1.98-11.56.09-1.78-.1-2.89-1.24-4.29Z"/><path class="cls-1" d="M12.98.62c.2,1.74-.99,3.77-.5,5.44.3,1.04,3.01,2.88,2.76,3.72-1.33.87-3.4.17-4.91,1.03-.96.55-2.32,4.2-2.85,4.2-1.34-.99-1.42-3.74-2.68-4.65-.84-.6-4.68-.86-4.79-1.42.53-1.53,3.08-2.32,3.54-3.79S3.06,1.71,3.39.06c.46-.47,3.73,2.22,4.94,2.22.92,0,4.24-2.1,4.65-1.65Z"/></svg>